HIERARCHY
ROOT hip
{
	OFFSET 0.000000 103.560692 0.219151
	CHANNELS 6 Xposition Yposition Zposition Zrotation Xrotation Yrotation
	JOINT pelvis
	{
		OFFSET 0.000000 1.955040 1.591925
		CHANNELS 3 Zrotation Xrotation Yrotation
		JOINT rThigh
		{
			OFFSET -8.341582 -7.629402 -0.646910
			CHANNELS 3 Zrotation Xrotation Yrotation
			JOINT rShin
			{
				OFFSET -2.185763 -45.093132 -0.705710
				CHANNELS 3 Zrotation Xrotation Yrotation
				JOINT rFoot
				{
					OFFSET -0.730976 -46.379768 -2.264282
					CHANNELS 3 Zrotation Xrotation Yrotation
					JOINT rToe
					{
						OFFSET -2.797621 -4.200019 10.742415
						CHANNELS 3 Zrotation Xrotation Yrotation
						JOINT rBigToe
						{
							OFFSET 2.433708 -0.269072 1.841711
							CHANNELS 3 Zrotation Xrotation Yrotation
							End Site
							{
								OFFSET 2.553802 1.165458 0.000000
							}
						}
					}
				}
			}
		}
	}
}
MOTION
Frames:	21
Frame Time:	0.0333333
-17.584478 -0.422928 11.728973 -4.839249 1.097750 6.755087 -0.000001 0.000002 0.000000 -3.243729 -9.002940 2.172701 4.135795 15.206554 3.972233 -4.369197 -20.964680 -5.492059 -3.063207 -10.450784 -1.932439 -0.000000 -0.000006 0.000021 
-19.811949 -0.351685 11.736823 -5.761290 0.895676 5.445152 0.000000 -0.000001 -0.000000 -0.871442 -9.193838 3.687848 4.605549 15.034380 3.914188 -4.743150 -20.417620 -6.177244 -3.026776 -10.437875 -1.943383 -0.000001 0.000001 -0.000015 
-21.229982 -0.296051 11.694420 -6.185672 1.061841 4.749327 -0.000002 -0.000000 0.000000 0.305909 -9.498772 3.474292 4.722894 14.952833 4.064342 -4.328456 -20.198332 -5.566762 -3.062479 -10.294153 -1.948225 0.000001 0.000006 -0.000018 
-22.498960 -0.367607 11.681458 -6.598133 1.640274 4.193793 0.000003 -0.000000 -0.000000 1.465607 -10.530040 3.369466 4.756916 15.622291 5.335777 -4.690684 -20.325705 -6.095292 -3.093575 -10.113984 -1.956642 -0.000001 -0.000000 -0.000013 
-23.882854 -0.337547 11.636778 -6.673897 2.096250 3.454166 -0.000001 -0.000001 0.000000 2.347700 -11.225348 4.593008 5.248249 15.712142 5.005868 -4.923863 -20.218430 -6.409893 -3.320277 -9.734131 -1.932810 0.000004 0.000013 0.000006 
-24.796444 -0.317101 11.626253 -6.601543 2.293457 2.748573 0.000000 0.000001 -0.000000 2.907841 -11.585495 5.641094 5.514872 15.829551 5.134473 -5.252995 -20.137316 -6.905984 -3.501503 -9.470292 -1.908068 -0.000002 -0.000012 0.000015 
-25.534258 -0.290573 11.626269 -6.539198 2.571122 2.208115 0.000000 0.000000 -0.000000 3.364543 -11.951312 5.528035 5.462886 15.962328 6.237419 -5.582027 -19.936392 -7.453872 -3.515113 -9.450218 -1.905639 -0.000003 -0.000007 -0.000019 
-26.325129 -0.192551 11.599821 -6.212865 3.161073 1.555040 0.000003 -0.000000 -0.000000 3.684854 -12.591901 5.817465 5.249417 15.993626 6.019548 -5.247732 -19.805368 -6.917620 -3.852553 -9.240317 -1.834179 -0.000001 -0.000007 0.000015 
-26.776758 -0.193619 11.559168 -6.231845 3.449213 1.273037 -0.000003 -0.000001 0.000000 3.991121 -12.876399 6.408467 5.438608 15.861675 5.515404 -5.225395 -19.792688 -6.723424 -4.090141 -8.988228 -1.789404 0.000003 0.000008 0.000015 
-27.165693 -0.201485 11.518135 -6.041197 3.857752 1.146017 -0.000001 -0.000002 0.000000 3.985769 -13.399125 6.237477 5.441743 16.063385 5.892529 -5.302660 -19.914333 -6.466161 -4.171210 -8.741998 -1.783459 0.000001 0.000002 0.000005 
-27.548832 -0.254066 11.482265 -6.391131 4.415703 1.091430 0.000000 0.000001 -0.000000 4.604337 -13.976653 6.447555 5.638385 15.999829 6.553514 -5.883471 -19.845356 -7.196694 -4.231789 -8.490511 -1.782358 0.000004 0.000001 0.000062 
-27.903507 -0.327087 11.463327 -6.347565 4.906749 1.009894 0.000001 0.000000 -0.000000 4.765375 -14.650648 6.316578 5.547153 16.367630 6.325197 -5.806100 -20.089325 -6.876481 -4.307598 -8.279569 -1.773850 0.000003 0.000007 0.000014 
-28.247461 -0.376434 11.528364 -6.300533 4.851786 1.111341 0.000003 -0.000001 -0.000000 4.875742 -14.645157 6.367932 5.630441 16.580269 6.718059 -6.231946 -20.169065 -7.390546 -4.301414 -8.297964 -1.773125 0.000000 0.000003 -0.000010 
-28.514637 -0.419373 11.590553 -6.486509 5.108735 1.527318 -0.000001 0.000000 0.000000 5.325830 -14.947543 6.693971 5.557752 16.690922 4.877425 -5.887444 -20.454082 -6.356752 -4.352082 -8.146738 -1.767603 -0.000001 -0.000002 -0.000001 
-28.704731 -0.464409 11.589663 -6.685338 5.284771 1.954832 -0.000003 0.000000 0.000000 5.602651 -15.208359 6.802954 5.678477 16.781708 4.992265 -6.319375 -20.470984 -7.011124 -4.321451 -8.172428 -1.773634 0.000001 0.000010 -0.000022 
-28.874842 -0.511253 11.583101 -6.631557 5.554382 2.304897 -0.000002 0.000001 0.000000 5.639812 -15.622410 6.841023 5.642745 17.034529 4.789273 -6.416861 -20.621862 -7.122797 -4.316212 -8.160035 -1.775495 0.000001 0.000002 0.000012 
-29.014809 -0.554749 11.565775 -6.714363 5.749768 2.710286 -0.000001 -0.000000 0.000000 5.842575 -15.969033 6.690577 5.461932 17.268755 4.436773 -6.281325 -20.771454 -6.951726 -4.360176 -8.083006 -1.768957 0.000002 0.000006 0.000015 
-29.129858 -0.593941 11.532259 -6.760351 5.867588 3.110753 -0.000001 -0.000001 0.000000 5.882070 -16.331980 7.039796 5.646385 17.604000 3.968037 -6.129071 -21.106276 -6.923259 -4.539920 -7.655262 -1.757554 0.000001 -0.000002 0.000032 
-29.224743 -0.629570 11.477694 -6.871432 5.819381 3.713062 0.000000 -0.000000 -0.000000 6.044763 -16.376913 7.205528 5.627759 17.729700 3.166391 -6.106331 -21.300821 -6.905406 -4.531802 -7.619214 -1.766937 -0.000004 -0.000012 -0.000005 
-29.300415 -0.661560 11.409018 -6.787173 5.940788 3.970384 -0.000003 -0.000002 0.000000 6.045428 -16.745569 7.502591 5.794887 18.083174 5.658107 -7.500653 -21.035311 -9.752488 -4.400027 -7.921962 -1.788371 -0.000000 -0.000001 -0.000002 
-29.366034 -0.692070 11.329477 -6.696676 5.939175 4.129290 -0.000004 0.000001 0.000000 6.017335 -16.899990 7.694268 5.821741 18.265177 5.691189 -7.801231 -21.153883 -10.247001 -4.506158 -7.584642 -1.780065 0.000002 0.000001 0.000021 
